<svg width="147" height="117" viewBox="0 0 147 117" fill="none" xmlns="http://www.w3.org/2000/svg">
<path d="M58.5818 77.848V89H57.1258V83.944H51.4458V89H49.9898V77.848H51.4458V82.744H57.1258V77.848H58.5818ZM60.5239 84.584C60.5239 83.688 60.7053 82.904 61.0679 82.232C61.4306 81.5493 61.9266 81.0213 62.5559 80.648C63.1959 80.2747 63.9053 80.088 64.6839 80.088C65.4519 80.088 66.1186 80.2533 66.6839 80.584C67.2493 80.9147 67.6706 81.3307 67.9479 81.832V80.232H69.4199V89H67.9479V87.368C67.6599 87.88 67.2279 88.3067 66.6519 88.648C66.0866 88.9787 65.4253 89.144 64.6679 89.144C63.8893 89.144 63.1853 88.952 62.5559 88.568C61.9266 88.184 61.4306 87.6453 61.0679 86.952C60.7053 86.2587 60.5239 85.4693 60.5239 84.584ZM67.9479 84.6C67.9479 83.9387 67.8146 83.3627 67.5479 82.872C67.2813 82.3813 66.9186 82.008 66.4599 81.752C66.0119 81.4853 65.5159 81.352 64.9719 81.352C64.4279 81.352 63.9319 81.48 63.4839 81.736C63.0359 81.992 62.6786 82.3653 62.4119 82.856C62.1453 83.3467 62.0119 83.9227 62.0119 84.584C62.0119 85.256 62.1453 85.8427 62.4119 86.344C62.6786 86.8347 63.0359 87.2133 63.4839 87.48C63.9319 87.736 64.4279 87.864 64.9719 87.864C65.5159 87.864 66.0119 87.736 66.4599 87.48C66.9186 87.2133 67.2813 86.8347 67.5479 86.344C67.8146 85.8427 67.9479 85.2613 67.9479 84.6ZM73.3364 81.656C73.5924 81.1547 73.9551 80.7653 74.4244 80.488C74.9044 80.2107 75.4858 80.072 76.1684 80.072V81.576H75.7844C74.1524 81.576 73.3364 82.4613 73.3364 84.232V89H71.8804V80.232H73.3364V81.656ZM81.4652 80.088C82.2225 80.088 82.8839 80.2533 83.4492 80.584C84.0252 80.9147 84.4519 81.3307 84.7292 81.832V80.232H86.2012V89.192C86.2012 89.992 86.0305 90.7013 85.6892 91.32C85.3479 91.9493 84.8572 92.44 84.2172 92.792C83.5879 93.144 82.8519 93.32 82.0092 93.32C80.8572 93.32 79.8972 93.048 79.1292 92.504C78.3612 91.96 77.9079 91.2187 77.7692 90.28H79.2092C79.3692 90.8133 79.6999 91.24 80.2012 91.56C80.7025 91.8907 81.3052 92.056 82.0092 92.056C82.8092 92.056 83.4599 91.8053 83.9612 91.304C84.4732 90.8027 84.7292 90.0987 84.7292 89.192V87.352C84.4412 87.864 84.0145 88.2907 83.4492 88.632C82.8839 88.9733 82.2225 89.144 81.4652 89.144C80.6865 89.144 79.9772 88.952 79.3372 88.568C78.7079 88.184 78.2119 87.6453 77.8492 86.952C77.4865 86.2587 77.3052 85.4693 77.3052 84.584C77.3052 83.688 77.4865 82.904 77.8492 82.232C78.2119 81.5493 78.7079 81.0213 79.3372 80.648C79.9772 80.2747 80.6865 80.088 81.4652 80.088ZM84.7292 84.6C84.7292 83.9387 84.5959 83.3627 84.3292 82.872C84.0625 82.3813 83.6999 82.008 83.2412 81.752C82.7932 81.4853 82.2972 81.352 81.7532 81.352C81.2092 81.352 80.7132 81.48 80.2652 81.736C79.8172 81.992 79.4599 82.3653 79.1932 82.856C78.9265 83.3467 78.7932 83.9227 78.7932 84.584C78.7932 85.256 78.9265 85.8427 79.1932 86.344C79.4599 86.8347 79.8172 87.2133 80.2652 87.48C80.7132 87.736 81.2092 87.864 81.7532 87.864C82.2972 87.864 82.7932 87.736 83.2412 87.48C83.6999 87.2133 84.0625 86.8347 84.3292 86.344C84.5959 85.8427 84.7292 85.2613 84.7292 84.6ZM88.1177 84.584C88.1177 83.688 88.299 82.904 88.6617 82.232C89.0244 81.5493 89.5204 81.0213 90.1497 80.648C90.7897 80.2747 91.499 80.088 92.2777 80.088C93.0457 80.088 93.7124 80.2533 94.2777 80.584C94.843 80.9147 95.2644 81.3307 95.5417 81.832V80.232H97.0137V89H95.5417V87.368C95.2537 87.88 94.8217 88.3067 94.2457 88.648C93.6804 88.9787 93.019 89.144 92.2617 89.144C91.483 89.144 90.779 88.952 90.1497 88.568C89.5204 88.184 89.0244 87.6453 88.6617 86.952C88.299 86.2587 88.1177 85.4693 88.1177 84.584ZM95.5417 84.6C95.5417 83.9387 95.4084 83.3627 95.1417 82.872C94.875 82.3813 94.5124 82.008 94.0537 81.752C93.6057 81.4853 93.1097 81.352 92.5657 81.352C92.0217 81.352 91.5257 81.48 91.0777 81.736C90.6297 81.992 90.2724 82.3653 90.0057 82.856C89.739 83.3467 89.6057 83.9227 89.6057 84.584C89.6057 85.256 89.739 85.8427 90.0057 86.344C90.2724 86.8347 90.6297 87.2133 91.0777 87.48C91.5257 87.736 92.0217 87.864 92.5657 87.864C93.1097 87.864 93.6057 87.736 94.0537 87.48C94.5124 87.2133 94.875 86.8347 95.1417 86.344C95.4084 85.8427 95.5417 85.2613 95.5417 84.6ZM33.0939 104.432V109.6C33.0939 110.027 33.1846 110.331 33.3659 110.512C33.5473 110.683 33.8619 110.768 34.3099 110.768H35.3819V112H34.0699C33.2593 112 32.6513 111.813 32.2459 111.44C31.8406 111.067 31.6379 110.453 31.6379 109.6V104.432H30.5019V103.232H31.6379V101.024H33.0939V103.232H35.3819V104.432H33.0939ZM45.1461 107.28C45.1461 107.557 45.1301 107.851 45.0981 108.16H38.0901C38.1434 109.024 38.4367 109.701 38.9701 110.192C39.5141 110.672 40.1701 110.912 40.9381 110.912C41.5674 110.912 42.0901 110.768 42.5061 110.48C42.9327 110.181 43.2314 109.787 43.4021 109.296H44.9701C44.7354 110.139 44.2661 110.827 43.5621 111.36C42.8581 111.883 41.9834 112.144 40.9381 112.144C40.1061 112.144 39.3594 111.957 38.6981 111.584C38.0474 111.211 37.5354 110.683 37.1621 110C36.7887 109.307 36.6021 108.507 36.6021 107.6C36.6021 106.693 36.7834 105.899 37.1461 105.216C37.5087 104.533 38.0154 104.011 38.6661 103.648C39.3274 103.275 40.0847 103.088 40.9381 103.088C41.7701 103.088 42.5061 103.269 43.1461 103.632C43.7861 103.995 44.2767 104.496 44.6181 105.136C44.9701 105.765 45.1461 106.48 45.1461 107.28ZM43.6421 106.976C43.6421 106.421 43.5194 105.947 43.2741 105.552C43.0287 105.147 42.6927 104.843 42.2661 104.64C41.8501 104.427 41.3861 104.32 40.8741 104.32C40.1381 104.32 39.5087 104.555 38.9861 105.024C38.4741 105.493 38.1807 106.144 38.1061 106.976H43.6421ZM48.5239 104.656C48.7799 104.155 49.1426 103.765 49.6119 103.488C50.0919 103.211 50.6733 103.072 51.3559 103.072V104.576H50.9719C49.3399 104.576 48.5239 105.461 48.5239 107.232V112H47.0679V103.232H48.5239V104.656ZM53.8207 101.808C53.5434 101.808 53.3087 101.712 53.1167 101.52C52.9354 101.328 52.8447 101.093 52.8447 100.816C52.8447 100.539 52.9354 100.304 53.1167 100.112C53.3087 99.92 53.5434 99.824 53.8207 99.824C54.098 99.824 54.3274 99.92 54.5087 100.112C54.7007 100.304 54.7967 100.539 54.7967 100.816C54.7967 101.093 54.7007 101.328 54.5087 101.52C54.3274 101.712 54.098 101.808 53.8207 101.808ZM54.5407 113.904C54.5407 114.683 54.3434 115.253 53.9487 115.616C53.554 115.979 52.978 116.16 52.2207 116.16H51.3727V114.928H51.9807C52.386 114.928 52.6687 114.848 52.8287 114.688C52.9994 114.528 53.0847 114.256 53.0847 113.872V103.232H54.5407V113.904ZM56.4614 107.584C56.4614 106.688 56.6428 105.904 57.0054 105.232C57.3681 104.549 57.8641 104.021 58.4934 103.648C59.1334 103.275 59.8428 103.088 60.6214 103.088C61.3894 103.088 62.0561 103.253 62.6214 103.584C63.1868 103.915 63.6081 104.331 63.8854 104.832V103.232H65.3574V112H63.8854V110.368C63.5974 110.88 63.1654 111.307 62.5894 111.648C62.0241 111.979 61.3628 112.144 60.6054 112.144C59.8268 112.144 59.1228 111.952 58.4934 111.568C57.8641 111.184 57.3681 110.645 57.0054 109.952C56.6428 109.259 56.4614 108.469 56.4614 107.584ZM63.8854 107.6C63.8854 106.939 63.7521 106.363 63.4854 105.872C63.2188 105.381 62.8561 105.008 62.3974 104.752C61.9494 104.485 61.4534 104.352 60.9094 104.352C60.3654 104.352 59.8694 104.48 59.4214 104.736C58.9734 104.992 58.6161 105.365 58.3494 105.856C58.0828 106.347 57.9494 106.923 57.9494 107.584C57.9494 108.256 58.0828 108.843 58.3494 109.344C58.6161 109.835 58.9734 110.213 59.4214 110.48C59.8694 110.736 60.3654 110.864 60.9094 110.864C61.4534 110.864 61.9494 110.736 62.3974 110.48C62.8561 110.213 63.2188 109.835 63.4854 109.344C63.7521 108.843 63.8854 108.261 63.8854 107.6ZM72.0899 103.072C73.1566 103.072 74.0206 103.397 74.6819 104.048C75.3433 104.688 75.6739 105.616 75.6739 106.832V112H74.2339V107.04C74.2339 106.165 74.0153 105.499 73.5779 105.04C73.1406 104.571 72.5433 104.336 71.7859 104.336C71.0179 104.336 70.4046 104.576 69.9459 105.056C69.4979 105.536 69.2739 106.235 69.2739 107.152V112H67.8179V103.232H69.2739V104.48C69.5619 104.032 69.9513 103.685 70.4419 103.44C70.9433 103.195 71.4926 103.072 72.0899 103.072ZM81.6683 103.088C82.4256 103.088 83.087 103.253 83.6523 103.584C84.2283 103.915 84.655 104.331 84.9323 104.832V103.232H86.4043V112.192C86.4043 112.992 86.2336 113.701 85.8923 114.32C85.551 114.949 85.0603 115.44 84.4203 115.792C83.791 116.144 83.055 116.32 82.2123 116.32C81.0603 116.32 80.1003 116.048 79.3323 115.504C78.5643 114.96 78.111 114.219 77.9723 113.28H79.4123C79.5723 113.813 79.903 114.24 80.4043 114.56C80.9056 114.891 81.5083 115.056 82.2123 115.056C83.0123 115.056 83.663 114.805 84.1643 114.304C84.6763 113.803 84.9323 113.099 84.9323 112.192V110.352C84.6443 110.864 84.2176 111.291 83.6523 111.632C83.087 111.973 82.4256 112.144 81.6683 112.144C80.8896 112.144 80.1803 111.952 79.5403 111.568C78.911 111.184 78.415 110.645 78.0523 109.952C77.6896 109.259 77.5083 108.469 77.5083 107.584C77.5083 106.688 77.6896 105.904 78.0523 105.232C78.415 104.549 78.911 104.021 79.5403 103.648C80.1803 103.275 80.8896 103.088 81.6683 103.088ZM84.9323 107.6C84.9323 106.939 84.799 106.363 84.5323 105.872C84.2656 105.381 83.903 105.008 83.4443 104.752C82.9963 104.485 82.5003 104.352 81.9563 104.352C81.4123 104.352 80.9163 104.48 80.4683 104.736C80.0203 104.992 79.663 105.365 79.3963 105.856C79.1296 106.347 78.9963 106.923 78.9963 107.584C78.9963 108.256 79.1296 108.843 79.3963 109.344C79.663 109.835 80.0203 110.213 80.4683 110.48C80.9163 110.736 81.4123 110.864 81.9563 110.864C82.5003 110.864 82.9963 110.736 83.4443 110.48C83.903 110.213 84.2656 109.835 84.5323 109.344C84.799 108.843 84.9323 108.261 84.9323 107.6ZM93.7608 112L90.3208 108.128V112H88.8648V100.16H90.3208V107.12L93.6968 103.232H95.7288L91.6008 107.6L95.7448 112H93.7608ZM96.5552 107.584C96.5552 106.688 96.7365 105.904 97.0992 105.232C97.4619 104.549 97.9579 104.021 98.5872 103.648C99.2272 103.275 99.9365 103.088 100.715 103.088C101.483 103.088 102.15 103.253 102.715 103.584C103.281 103.915 103.702 104.331 103.979 104.832V103.232H105.451V112H103.979V110.368C103.691 110.88 103.259 111.307 102.683 111.648C102.118 111.979 101.457 112.144 100.699 112.144C99.9205 112.144 99.2165 111.952 98.5872 111.568C97.9579 111.184 97.4619 110.645 97.0992 109.952C96.7365 109.259 96.5552 108.469 96.5552 107.584ZM103.979 107.6C103.979 106.939 103.846 106.363 103.579 105.872C103.313 105.381 102.95 105.008 102.491 104.752C102.043 104.485 101.547 104.352 101.003 104.352C100.459 104.352 99.9632 104.48 99.5152 104.736C99.0672 104.992 98.7099 105.365 98.4432 105.856C98.1765 106.347 98.0432 106.923 98.0432 107.584C98.0432 108.256 98.1765 108.843 98.4432 109.344C98.7099 109.835 99.0672 110.213 99.5152 110.48C99.9632 110.736 100.459 110.864 101.003 110.864C101.547 110.864 102.043 110.736 102.491 110.48C102.95 110.213 103.313 109.835 103.579 109.344C103.846 108.843 103.979 108.261 103.979 107.6ZM115.688 103.232V112H114.232V110.704C113.954 111.152 113.565 111.504 113.064 111.76C112.573 112.005 112.029 112.128 111.432 112.128C110.749 112.128 110.136 111.989 109.592 111.712C109.048 111.424 108.616 110.997 108.296 110.432C107.986 109.867 107.832 109.179 107.832 108.368V103.232H109.272V108.176C109.272 109.04 109.49 109.707 109.928 110.176C110.365 110.635 110.962 110.864 111.72 110.864C112.498 110.864 113.112 110.624 113.56 110.144C114.008 109.664 114.232 108.965 114.232 108.048V103.232H115.688Z" fill="white"/>
<path d="M81.8775 24.8483L67.9995 21.4841C66.3933 21.1008 65.2753 19.8552 65.2753 18.4712C65.2753 16.7359 66.9715 15.3306 69.066 15.3306H77.5856C79.1533 15.3306 80.6953 15.7245 81.9803 16.4484C82.7641 16.8849 83.8178 16.7785 84.486 16.2355L88.9578 12.6158C89.8702 11.8812 89.7417 10.6569 88.7265 10.0075C85.5783 7.96339 81.6462 6.82424 77.6113 6.81359V1.7034C77.6113 0.766529 76.6861 0 75.5553 0H71.4433C70.3125 0 69.3873 0.766529 69.3873 1.7034V6.81359H69.066C60.8806 6.81359 54.3014 12.6371 55.0596 19.5465C55.5993 24.4544 60.1225 28.4468 65.8279 29.8308L78.9991 33.0246C80.6053 33.4185 81.7233 34.6535 81.7233 36.0375C81.7233 37.7729 80.0271 39.1782 77.9325 39.1782H69.413C67.8453 39.1782 66.3033 38.7842 65.0183 38.0603C64.2345 37.6238 63.1808 37.7303 62.5126 38.2732L58.0408 41.8929C57.1284 42.6275 57.2569 43.8519 58.2721 44.5013C61.4203 46.5454 65.3524 47.6845 69.3873 47.6951V52.8053C69.3873 53.7422 70.3125 54.5087 71.4433 54.5087H75.5553C76.6861 54.5087 77.6113 53.7422 77.6113 52.8053V47.6739C83.5994 47.578 89.2148 44.629 91.1937 39.934C93.9565 33.376 89.3176 26.6475 81.8775 24.8483Z" fill="#EC994B"/>
</svg>
