<svg width="117" height="16" viewBox="0 0 117 16" fill="none" xmlns="http://www.w3.org/2000/svg">
<line y1="-0.5" x2="8.3343" y2="-0.5" transform="matrix(0.707107 -0.707107 -0.707107 -0.707107 0 6)" stroke="#F3F6FB" stroke-opacity="0.3"/>
<line y1="-0.5" x2="8.3343" y2="-0.5" transform="matrix(0.707107 0.707107 0.707107 -0.707107 6.06104 0)" stroke="#F3F6FB" stroke-opacity="0.3"/>
<line y1="-0.5" x2="8.3343" y2="-0.5" transform="matrix(0.707107 -0.707107 -0.707107 -0.707107 11.603 6)" stroke="#F3F6FB" stroke-opacity="0.3"/>
<line y1="-0.5" x2="8.3343" y2="-0.5" transform="matrix(0.707107 0.707107 0.707107 -0.707107 17.6641 0)" stroke="#F3F6FB" stroke-opacity="0.3"/>
<line y1="-0.5" x2="8.3343" y2="-0.5" transform="matrix(0.707107 -0.707107 -0.707107 -0.707107 23.2061 6)" stroke="#F3F6FB" stroke-opacity="0.3"/>
<line y1="-0.5" x2="8.3343" y2="-0.5" transform="matrix(0.707107 0.707107 0.707107 -0.707107 29.2671 0)" stroke="#F3F6FB" stroke-opacity="0.3"/>
<line y1="-0.5" x2="8.3343" y2="-0.5" transform="matrix(0.707107 -0.707107 -0.707107 -0.707107 34.8091 6)" stroke="#F3F6FB" stroke-opacity="0.3"/>
<line y1="-0.5" x2="8.3343" y2="-0.5" transform="matrix(0.707107 0.707107 0.707107 -0.707107 40.916 0.106812)" stroke="#F3F6FB" stroke-opacity="0.3"/>
<line y1="-0.5" x2="8.3343" y2="-0.5" transform="matrix(0.707107 -0.707107 -0.707107 -0.707107 24 15)" stroke="#F3F6FB" stroke-opacity="0.3"/>
<line y1="-0.5" x2="8.3343" y2="-0.5" transform="matrix(0.707107 0.707107 0.707107 -0.707107 30.061 9)" stroke="#F3F6FB" stroke-opacity="0.3"/>
<line y1="-0.5" x2="8.3343" y2="-0.5" transform="matrix(0.707107 -0.707107 -0.707107 -0.707107 35.603 15)" stroke="#F3F6FB" stroke-opacity="0.3"/>
<line y1="-0.5" x2="8.3343" y2="-0.5" transform="matrix(0.707107 0.707107 0.707107 -0.707107 41.6641 9)" stroke="#F3F6FB" stroke-opacity="0.3"/>
<line y1="-0.5" x2="8.3343" y2="-0.5" transform="matrix(0.707107 -0.707107 -0.707107 -0.707107 47.2061 15)" stroke="#F3F6FB" stroke-opacity="0.3"/>
<line y1="-0.5" x2="8.3343" y2="-0.5" transform="matrix(0.707107 0.707107 0.707107 -0.707107 53.2671 9)" stroke="#F3F6FB" stroke-opacity="0.3"/>
<line y1="-0.5" x2="8.3343" y2="-0.5" transform="matrix(0.707107 -0.707107 -0.707107 -0.707107 58.8091 15)" stroke="#F3F6FB" stroke-opacity="0.3"/>
<line y1="-0.5" x2="8.3343" y2="-0.5" transform="matrix(0.707107 0.707107 0.707107 -0.707107 64.916 9.10681)" stroke="#F3F6FB" stroke-opacity="0.3"/>
<line y1="-0.5" x2="8.3343" y2="-0.5" transform="matrix(0.707107 -0.707107 -0.707107 -0.707107 46 6)" stroke="#F3F6FB" stroke-opacity="0.3"/>
<line y1="-0.5" x2="8.3343" y2="-0.5" transform="matrix(0.707107 0.707107 0.707107 -0.707107 52.061 0)" stroke="#F3F6FB" stroke-opacity="0.3"/>
<line y1="-0.5" x2="8.3343" y2="-0.5" transform="matrix(0.707107 -0.707107 -0.707107 -0.707107 57.603 6)" stroke="#F3F6FB" stroke-opacity="0.3"/>
<line y1="-0.5" x2="8.3343" y2="-0.5" transform="matrix(0.707107 0.707107 0.707107 -0.707107 63.6641 0)" stroke="#F3F6FB" stroke-opacity="0.3"/>
<line y1="-0.5" x2="8.3343" y2="-0.5" transform="matrix(0.707107 -0.707107 -0.707107 -0.707107 69.2061 6)" stroke="#F3F6FB" stroke-opacity="0.3"/>
<line y1="-0.5" x2="8.3343" y2="-0.5" transform="matrix(0.707107 0.707107 0.707107 -0.707107 75.2671 0)" stroke="#F3F6FB" stroke-opacity="0.3"/>
<line y1="-0.5" x2="8.3343" y2="-0.5" transform="matrix(0.707107 -0.707107 -0.707107 -0.707107 80.8091 6)" stroke="#F3F6FB" stroke-opacity="0.3"/>
<line y1="-0.5" x2="8.3343" y2="-0.5" transform="matrix(0.707107 0.707107 0.707107 -0.707107 86.916 0.106812)" stroke="#F3F6FB" stroke-opacity="0.3"/>
<line y1="-0.5" x2="8.3343" y2="-0.5" transform="matrix(0.707107 -0.707107 -0.707107 -0.707107 70 15)" stroke="#F3F6FB" stroke-opacity="0.3"/>
<line y1="-0.5" x2="8.3343" y2="-0.5" transform="matrix(0.707107 0.707107 0.707107 -0.707107 76.061 9)" stroke="#F3F6FB" stroke-opacity="0.3"/>
<line y1="-0.5" x2="8.3343" y2="-0.5" transform="matrix(0.707107 -0.707107 -0.707107 -0.707107 81.603 15)" stroke="#F3F6FB" stroke-opacity="0.3"/>
<line y1="-0.5" x2="8.3343" y2="-0.5" transform="matrix(0.707107 0.707107 0.707107 -0.707107 87.6641 9)" stroke="#F3F6FB" stroke-opacity="0.3"/>
<line y1="-0.5" x2="8.3343" y2="-0.5" transform="matrix(0.707107 -0.707107 -0.707107 -0.707107 93.2061 15)" stroke="#F3F6FB" stroke-opacity="0.3"/>
<line y1="-0.5" x2="8.3343" y2="-0.5" transform="matrix(0.707107 0.707107 0.707107 -0.707107 99.2671 9)" stroke="#F3F6FB" stroke-opacity="0.3"/>
<line y1="-0.5" x2="8.3343" y2="-0.5" transform="matrix(0.707107 -0.707107 -0.707107 -0.707107 104.809 15)" stroke="#F3F6FB" stroke-opacity="0.3"/>
<line y1="-0.5" x2="8.3343" y2="-0.5" transform="matrix(0.707107 0.707107 0.707107 -0.707107 110.916 9.10681)" stroke="#F3F6FB" stroke-opacity="0.3"/>
</svg>
