<svg width="33" height="33" viewBox="0 0 33 33" fill="none" xmlns="http://www.w3.org/2000/svg">
<path d="M24.75 12.031V14.9482C23.2207 14.901 21.7367 14.3867 20.4883 13.4668L20.09 13.1733V13.6681V20.651C20.09 20.6511 20.09 20.6511 20.09 20.6511C20.0895 21.8951 19.7201 23.1088 19.0319 24.1297C18.3438 25.1505 17.3702 25.9296 16.242 26.3641C15.114 26.7985 13.8844 26.8679 12.7172 26.5634C11.5499 26.2589 10.4996 25.5945 9.70739 24.6577C8.91505 23.7209 8.41876 22.5565 8.28595 21.3201C8.15313 20.0836 8.39029 18.8352 8.9651 17.7419C9.53988 16.6488 10.4245 15.7636 11.4996 15.2036C12.5101 14.6772 13.6442 14.4613 14.7672 14.5787V17.5461C14.2431 17.4393 13.6989 17.4739 13.1886 17.6494C12.5713 17.8617 12.0362 18.2689 11.6589 18.8114C11.2817 19.3539 11.0812 20.0043 11.085 20.6698C11.0888 21.3353 11.2968 21.9833 11.6802 22.5211C12.0637 23.0591 12.6034 23.4598 13.2232 23.6646C13.8431 23.8694 14.5102 23.8674 15.1288 23.6588C15.7474 23.4503 16.2848 23.0463 16.6652 22.506C17.0455 21.9658 17.2497 21.3166 17.2497 20.6511V7.25H20.0942C20.1033 7.47082 20.1266 7.69088 20.1642 7.90871L20.1642 7.90871L20.1646 7.91097C20.2866 8.58172 20.5403 9.22017 20.9105 9.78723C21.2804 10.3539 21.759 10.8375 22.3174 11.2081C23.043 11.7017 23.8833 11.9853 24.75 12.031Z" stroke="#080054" stroke-width="0.5"/>
<circle cx="16.5" cy="16.5" r="16" stroke="#080054"/>
</svg>
