<svg width="147" height="116" viewBox="0 0 147 116" fill="none" xmlns="http://www.w3.org/2000/svg">
<path d="M12.4441 88L7.85206 82.912V88H6.39606V76.848H7.85206V82.016L12.4601 76.848H14.3001L9.24406 82.432L14.3481 88H12.4441ZM15.4302 83.584C15.4302 82.688 15.6115 81.904 15.9742 81.232C16.3369 80.5493 16.8329 80.0213 17.4622 79.648C18.1022 79.2747 18.8115 79.088 19.5902 79.088C20.3582 79.088 21.0249 79.2533 21.5902 79.584C22.1555 79.9147 22.5769 80.3307 22.8542 80.832V79.232H24.3262V88H22.8542V86.368C22.5662 86.88 22.1342 87.3067 21.5582 87.648C20.9929 87.9787 20.3315 88.144 19.5742 88.144C18.7955 88.144 18.0915 87.952 17.4622 87.568C16.8329 87.184 16.3369 86.6453 15.9742 85.952C15.6115 85.2587 15.4302 84.4693 15.4302 83.584ZM22.8542 83.6C22.8542 82.9387 22.7209 82.3627 22.4542 81.872C22.1875 81.3813 21.8249 81.008 21.3662 80.752C20.9182 80.4853 20.4222 80.352 19.8782 80.352C19.3342 80.352 18.8382 80.48 18.3902 80.736C17.9422 80.992 17.5849 81.3653 17.3182 81.856C17.0515 82.3467 16.9182 82.9227 16.9182 83.584C16.9182 84.256 17.0515 84.8427 17.3182 85.344C17.5849 85.8347 17.9422 86.2133 18.3902 86.48C18.8382 86.736 19.3342 86.864 19.8782 86.864C20.4222 86.864 20.9182 86.736 21.3662 86.48C21.8249 86.2133 22.1875 85.8347 22.4542 85.344C22.7209 84.8427 22.8542 84.2613 22.8542 83.6ZM27.5387 77.808C27.2614 77.808 27.0267 77.712 26.8347 77.52C26.6427 77.328 26.5467 77.0933 26.5467 76.816C26.5467 76.5387 26.6427 76.304 26.8347 76.112C27.0267 75.92 27.2614 75.824 27.5387 75.824C27.8054 75.824 28.0294 75.92 28.2107 76.112C28.4027 76.304 28.4987 76.5387 28.4987 76.816C28.4987 77.0933 28.4027 77.328 28.2107 77.52C28.0294 77.712 27.8054 77.808 27.5387 77.808ZM28.2427 79.232V88H26.7867V79.232H28.2427ZM34.9962 79.072C36.0629 79.072 36.9269 79.3973 37.5882 80.048C38.2495 80.688 38.5802 81.616 38.5802 82.832V88H37.1402V83.04C37.1402 82.1653 36.9215 81.4987 36.4842 81.04C36.0469 80.5707 35.4495 80.336 34.6922 80.336C33.9242 80.336 33.3109 80.576 32.8522 81.056C32.4042 81.536 32.1802 82.2347 32.1802 83.152V88H30.7242V79.232H32.1802V80.48C32.4682 80.032 32.8575 79.6853 33.3482 79.44C33.8495 79.1947 34.3989 79.072 34.9962 79.072ZM44.6802 83.584C44.6802 82.688 44.8615 81.904 45.2242 81.232C45.5869 80.5493 46.0829 80.0213 46.7122 79.648C47.3522 79.2747 48.0669 79.088 48.8562 79.088C49.5389 79.088 50.1735 79.248 50.7602 79.568C51.3469 79.8773 51.7949 80.288 52.1042 80.8V76.16H53.5762V88H52.1042V86.352C51.8162 86.8747 51.3895 87.3067 50.8242 87.648C50.2589 87.9787 49.5975 88.144 48.8402 88.144C48.0615 88.144 47.3522 87.952 46.7122 87.568C46.0829 87.184 45.5869 86.6453 45.2242 85.952C44.8615 85.2587 44.6802 84.4693 44.6802 83.584ZM52.1042 83.6C52.1042 82.9387 51.9709 82.3627 51.7042 81.872C51.4375 81.3813 51.0749 81.008 50.6162 80.752C50.1682 80.4853 49.6722 80.352 49.1282 80.352C48.5842 80.352 48.0882 80.48 47.6402 80.736C47.1922 80.992 46.8349 81.3653 46.5682 81.856C46.3015 82.3467 46.1682 82.9227 46.1682 83.584C46.1682 84.256 46.3015 84.8427 46.5682 85.344C46.8349 85.8347 47.1922 86.2133 47.6402 86.48C48.0882 86.736 48.5842 86.864 49.1282 86.864C49.6722 86.864 50.1682 86.736 50.6162 86.48C51.0749 86.2133 51.4375 85.8347 51.7042 85.344C51.9709 84.8427 52.1042 84.2613 52.1042 83.6ZM55.4927 83.584C55.4927 82.688 55.674 81.904 56.0367 81.232C56.3994 80.5493 56.8954 80.0213 57.5247 79.648C58.1647 79.2747 58.874 79.088 59.6527 79.088C60.4207 79.088 61.0874 79.2533 61.6527 79.584C62.218 79.9147 62.6394 80.3307 62.9167 80.832V79.232H64.3887V88H62.9167V86.368C62.6287 86.88 62.1967 87.3067 61.6207 87.648C61.0554 87.9787 60.394 88.144 59.6367 88.144C58.858 88.144 58.154 87.952 57.5247 87.568C56.8954 87.184 56.3994 86.6453 56.0367 85.952C55.674 85.2587 55.4927 84.4693 55.4927 83.584ZM62.9167 83.6C62.9167 82.9387 62.7834 82.3627 62.5167 81.872C62.25 81.3813 61.8874 81.008 61.4287 80.752C60.9807 80.4853 60.4847 80.352 59.9407 80.352C59.3967 80.352 58.9007 80.48 58.4527 80.736C58.0047 80.992 57.6474 81.3653 57.3807 81.856C57.114 82.3467 56.9807 82.9227 56.9807 83.584C56.9807 84.256 57.114 84.8427 57.3807 85.344C57.6474 85.8347 58.0047 86.2133 58.4527 86.48C58.9007 86.736 59.3967 86.864 59.9407 86.864C60.4847 86.864 60.9807 86.736 61.4287 86.48C61.8874 86.2133 62.25 85.8347 62.5167 85.344C62.7834 84.8427 62.9167 84.2613 62.9167 83.6ZM71.1212 79.072C72.1879 79.072 73.0519 79.3973 73.7132 80.048C74.3745 80.688 74.7052 81.616 74.7052 82.832V88H73.2652V83.04C73.2652 82.1653 73.0465 81.4987 72.6092 81.04C72.1719 80.5707 71.5745 80.336 70.8172 80.336C70.0492 80.336 69.4359 80.576 68.9772 81.056C68.5292 81.536 68.3052 82.2347 68.3052 83.152V88H66.8492V79.232H68.3052V80.48C68.5932 80.032 68.9825 79.6853 69.4732 79.44C69.9745 79.1947 70.5239 79.072 71.1212 79.072ZM82.8052 80.864C83.1039 80.3413 83.5412 79.9147 84.1172 79.584C84.6932 79.2533 85.3492 79.088 86.0852 79.088C86.8745 79.088 87.5839 79.2747 88.2132 79.648C88.8425 80.0213 89.3385 80.5493 89.7012 81.232C90.0639 81.904 90.2452 82.688 90.2452 83.584C90.2452 84.4693 90.0639 85.2587 89.7012 85.952C89.3385 86.6453 88.8372 87.184 88.1972 87.568C87.5679 87.952 86.8639 88.144 86.0852 88.144C85.3279 88.144 84.6612 87.9787 84.0852 87.648C83.5199 87.3173 83.0932 86.896 82.8052 86.384V88H81.3492V76.16H82.8052V80.864ZM88.7572 83.584C88.7572 82.9227 88.6239 82.3467 88.3572 81.856C88.0905 81.3653 87.7279 80.992 87.2692 80.736C86.8212 80.48 86.3252 80.352 85.7812 80.352C85.2479 80.352 84.7519 80.4853 84.2932 80.752C83.8452 81.008 83.4825 81.3867 83.2052 81.888C82.9385 82.3787 82.8052 82.9493 82.8052 83.6C82.8052 84.2613 82.9385 84.8427 83.2052 85.344C83.4825 85.8347 83.8452 86.2133 84.2932 86.48C84.7519 86.736 85.2479 86.864 85.7812 86.864C86.3252 86.864 86.8212 86.736 87.2692 86.48C87.7279 86.2133 88.0905 85.8347 88.3572 85.344C88.6239 84.8427 88.7572 84.256 88.7572 83.584ZM91.6177 83.584C91.6177 82.688 91.799 81.904 92.1617 81.232C92.5244 80.5493 93.0204 80.0213 93.6497 79.648C94.2897 79.2747 94.999 79.088 95.7777 79.088C96.5457 79.088 97.2124 79.2533 97.7777 79.584C98.343 79.9147 98.7644 80.3307 99.0417 80.832V79.232H100.514V88H99.0417V86.368C98.7537 86.88 98.3217 87.3067 97.7457 87.648C97.1804 87.9787 96.519 88.144 95.7617 88.144C94.983 88.144 94.279 87.952 93.6497 87.568C93.0204 87.184 92.5244 86.6453 92.1617 85.952C91.799 85.2587 91.6177 84.4693 91.6177 83.584ZM99.0417 83.6C99.0417 82.9387 98.9084 82.3627 98.6417 81.872C98.375 81.3813 98.0124 81.008 97.5537 80.752C97.1057 80.4853 96.6097 80.352 96.0657 80.352C95.5217 80.352 95.0257 80.48 94.5777 80.736C94.1297 80.992 93.7724 81.3653 93.5057 81.856C93.239 82.3467 93.1057 82.9227 93.1057 83.584C93.1057 84.256 93.239 84.8427 93.5057 85.344C93.7724 85.8347 94.1297 86.2133 94.5777 86.48C95.0257 86.736 95.5217 86.864 96.0657 86.864C96.6097 86.864 97.1057 86.736 97.5537 86.48C98.0124 86.2133 98.375 85.8347 98.6417 85.344C98.9084 84.8427 99.0417 84.2613 99.0417 83.6ZM107.326 79.072C107.988 79.072 108.585 79.216 109.118 79.504C109.652 79.7813 110.068 80.2027 110.366 80.768C110.676 81.3333 110.83 82.0213 110.83 82.832V88H109.39V83.04C109.39 82.1653 109.172 81.4987 108.734 81.04C108.297 80.5707 107.7 80.336 106.942 80.336C106.174 80.336 105.561 80.576 105.102 81.056C104.654 81.536 104.43 82.2347 104.43 83.152V88H102.974V76.16H104.43V80.48C104.718 80.032 105.113 79.6853 105.614 79.44C106.126 79.1947 106.697 79.072 107.326 79.072ZM112.665 83.584C112.665 82.688 112.846 81.904 113.209 81.232C113.571 80.5493 114.067 80.0213 114.697 79.648C115.337 79.2747 116.046 79.088 116.825 79.088C117.593 79.088 118.259 79.2533 118.825 79.584C119.39 79.9147 119.811 80.3307 120.089 80.832V79.232H121.561V88H120.089V86.368C119.801 86.88 119.369 87.3067 118.793 87.648C118.227 87.9787 117.566 88.144 116.809 88.144C116.03 88.144 115.326 87.952 114.697 87.568C114.067 87.184 113.571 86.6453 113.209 85.952C112.846 85.2587 112.665 84.4693 112.665 83.584ZM120.089 83.6C120.089 82.9387 119.955 82.3627 119.689 81.872C119.422 81.3813 119.059 81.008 118.601 80.752C118.153 80.4853 117.657 80.352 117.113 80.352C116.569 80.352 116.073 80.48 115.625 80.736C115.177 80.992 114.819 81.3653 114.553 81.856C114.286 82.3467 114.153 82.9227 114.153 83.584C114.153 84.256 114.286 84.8427 114.553 85.344C114.819 85.8347 115.177 86.2133 115.625 86.48C116.073 86.736 116.569 86.864 117.113 86.864C117.657 86.864 118.153 86.736 118.601 86.48C119.059 86.2133 119.422 85.8347 119.689 85.344C119.955 84.8427 120.089 84.2613 120.089 83.6ZM128.293 79.072C129.36 79.072 130.224 79.3973 130.885 80.048C131.546 80.688 131.877 81.616 131.877 82.832V88H130.437V83.04C130.437 82.1653 130.218 81.4987 129.781 81.04C129.344 80.5707 128.746 80.336 127.989 80.336C127.221 80.336 126.608 80.576 126.149 81.056C125.701 81.536 125.477 82.2347 125.477 83.152V88H124.021V79.232H125.477V80.48C125.765 80.032 126.154 79.6853 126.645 79.44C127.146 79.1947 127.696 79.072 128.293 79.072ZM140.335 81.52V82.752H133.951V81.52H140.335ZM19.8443 103.864C20.1429 103.341 20.5803 102.915 21.1562 102.584C21.7323 102.253 22.3883 102.088 23.1243 102.088C23.9136 102.088 24.6229 102.275 25.2523 102.648C25.8816 103.021 26.3776 103.549 26.7403 104.232C27.1029 104.904 27.2843 105.688 27.2843 106.584C27.2843 107.469 27.1029 108.259 26.7403 108.952C26.3776 109.645 25.8762 110.184 25.2362 110.568C24.6069 110.952 23.9029 111.144 23.1243 111.144C22.3669 111.144 21.7003 110.979 21.1243 110.648C20.5589 110.317 20.1323 109.896 19.8443 109.384V111H18.3883V99.16H19.8443V103.864ZM25.7963 106.584C25.7963 105.923 25.6629 105.347 25.3963 104.856C25.1296 104.365 24.7669 103.992 24.3083 103.736C23.8603 103.48 23.3643 103.352 22.8203 103.352C22.2869 103.352 21.7909 103.485 21.3323 103.752C20.8843 104.008 20.5216 104.387 20.2443 104.888C19.9776 105.379 19.8443 105.949 19.8443 106.6C19.8443 107.261 19.9776 107.843 20.2443 108.344C20.5216 108.835 20.8843 109.213 21.3323 109.48C21.7909 109.736 22.2869 109.864 22.8203 109.864C23.3643 109.864 23.8603 109.736 24.3083 109.48C24.7669 109.213 25.1296 108.835 25.3963 108.344C25.6629 107.843 25.7963 107.256 25.7963 106.584ZM28.6568 106.584C28.6568 105.688 28.8381 104.904 29.2008 104.232C29.5634 103.549 30.0594 103.021 30.6888 102.648C31.3288 102.275 32.0381 102.088 32.8168 102.088C33.5848 102.088 34.2514 102.253 34.8168 102.584C35.3821 102.915 35.8034 103.331 36.0808 103.832V102.232H37.5528V111H36.0808V109.368C35.7928 109.88 35.3608 110.307 34.7848 110.648C34.2194 110.979 33.5581 111.144 32.8008 111.144C32.0221 111.144 31.3181 110.952 30.6888 110.568C30.0594 110.184 29.5634 109.645 29.2008 108.952C28.8381 108.259 28.6568 107.469 28.6568 106.584ZM36.0808 106.6C36.0808 105.939 35.9474 105.363 35.6808 104.872C35.4141 104.381 35.0514 104.008 34.5928 103.752C34.1448 103.485 33.6488 103.352 33.1048 103.352C32.5608 103.352 32.0648 103.48 31.6168 103.736C31.1688 103.992 30.8114 104.365 30.5448 104.856C30.2781 105.347 30.1448 105.923 30.1448 106.584C30.1448 107.256 30.2781 107.843 30.5448 108.344C30.8114 108.835 31.1688 109.213 31.6168 109.48C32.0648 109.736 32.5608 109.864 33.1048 109.864C33.6488 109.864 34.1448 109.736 34.5928 109.48C35.0514 109.213 35.4141 108.835 35.6808 108.344C35.9474 107.843 36.0808 107.261 36.0808 106.6ZM44.3653 102.072C45.0266 102.072 45.6239 102.216 46.1573 102.504C46.6906 102.781 47.1066 103.203 47.4053 103.768C47.7146 104.333 47.8693 105.021 47.8693 105.832V111H46.4293V106.04C46.4293 105.165 46.2106 104.499 45.7733 104.04C45.3359 103.571 44.7386 103.336 43.9813 103.336C43.2133 103.336 42.5999 103.576 42.1413 104.056C41.6933 104.536 41.4693 105.235 41.4693 106.152V111H40.0133V99.16H41.4693V103.48C41.7573 103.032 42.1519 102.685 42.6533 102.44C43.1653 102.195 43.7359 102.072 44.3653 102.072ZM49.7036 106.584C49.7036 105.688 49.885 104.904 50.2476 104.232C50.6103 103.549 51.1063 103.021 51.7356 102.648C52.3756 102.275 53.085 102.088 53.8636 102.088C54.6316 102.088 55.2983 102.253 55.8636 102.584C56.429 102.915 56.8503 103.331 57.1276 103.832V102.232H58.5996V111H57.1276V109.368C56.8396 109.88 56.4076 110.307 55.8316 110.648C55.2663 110.979 54.605 111.144 53.8476 111.144C53.069 111.144 52.365 110.952 51.7356 110.568C51.1063 110.184 50.6103 109.645 50.2476 108.952C49.885 108.259 49.7036 107.469 49.7036 106.584ZM57.1276 106.6C57.1276 105.939 56.9943 105.363 56.7276 104.872C56.461 104.381 56.0983 104.008 55.6396 103.752C55.1916 103.485 54.6956 103.352 54.1516 103.352C53.6076 103.352 53.1116 103.48 52.6636 103.736C52.2156 103.992 51.8583 104.365 51.5916 104.856C51.325 105.347 51.1916 105.923 51.1916 106.584C51.1916 107.256 51.325 107.843 51.5916 108.344C51.8583 108.835 52.2156 109.213 52.6636 109.48C53.1116 109.736 53.6076 109.864 54.1516 109.864C54.6956 109.864 55.1916 109.736 55.6396 109.48C56.0983 109.213 56.461 108.835 56.7276 108.344C56.9943 107.843 57.1276 107.261 57.1276 106.6ZM65.3321 102.072C66.3988 102.072 67.2628 102.397 67.9241 103.048C68.5855 103.688 68.9161 104.616 68.9161 105.832V111H67.4761V106.04C67.4761 105.165 67.2575 104.499 66.8201 104.04C66.3828 103.571 65.7855 103.336 65.0281 103.336C64.2601 103.336 63.6468 103.576 63.1881 104.056C62.7401 104.536 62.5161 105.235 62.5161 106.152V111H61.0601V102.232H62.5161V103.48C62.8041 103.032 63.1935 102.685 63.6841 102.44C64.1855 102.195 64.7348 102.072 65.3321 102.072ZM77.3361 103.432V108.6C77.3361 109.027 77.4268 109.331 77.6081 109.512C77.7895 109.683 78.1041 109.768 78.5521 109.768H79.6241V111H78.3121C77.5015 111 76.8935 110.813 76.4881 110.44C76.0828 110.067 75.8801 109.453 75.8801 108.6V103.432H74.7441V102.232H75.8801V100.024H77.3361V102.232H79.6241V103.432H77.3361ZM89.3883 106.28C89.3883 106.557 89.3723 106.851 89.3403 107.16H82.3323C82.3856 108.024 82.6789 108.701 83.2123 109.192C83.7563 109.672 84.4123 109.912 85.1803 109.912C85.8096 109.912 86.3323 109.768 86.7483 109.48C87.1749 109.181 87.4736 108.787 87.6443 108.296H89.2123C88.9776 109.139 88.5083 109.827 87.8043 110.36C87.1003 110.883 86.2256 111.144 85.1803 111.144C84.3483 111.144 83.6016 110.957 82.9403 110.584C82.2896 110.211 81.7776 109.683 81.4043 109C81.0309 108.307 80.8443 107.507 80.8443 106.6C80.8443 105.693 81.0256 104.899 81.3883 104.216C81.7509 103.533 82.2576 103.011 82.9083 102.648C83.5696 102.275 84.3269 102.088 85.1803 102.088C86.0123 102.088 86.7483 102.269 87.3883 102.632C88.0283 102.995 88.5189 103.496 88.8603 104.136C89.2123 104.765 89.3883 105.48 89.3883 106.28ZM87.8843 105.976C87.8843 105.421 87.7616 104.947 87.5163 104.552C87.2709 104.147 86.9349 103.843 86.5083 103.64C86.0923 103.427 85.6283 103.32 85.1163 103.32C84.3803 103.32 83.7509 103.555 83.2283 104.024C82.7163 104.493 82.4229 105.144 82.3483 105.976H87.8843ZM92.7661 103.656C93.0221 103.155 93.3848 102.765 93.8541 102.488C94.3341 102.211 94.9155 102.072 95.5981 102.072V103.576H95.2141C93.5821 103.576 92.7661 104.461 92.7661 106.232V111H91.3101V102.232H92.7661V103.656ZM98.7349 103.864C99.0335 103.341 99.4709 102.915 100.047 102.584C100.623 102.253 101.279 102.088 102.015 102.088C102.804 102.088 103.514 102.275 104.143 102.648C104.772 103.021 105.268 103.549 105.631 104.232C105.994 104.904 106.175 105.688 106.175 106.584C106.175 107.469 105.994 108.259 105.631 108.952C105.268 109.645 104.767 110.184 104.127 110.568C103.498 110.952 102.794 111.144 102.015 111.144C101.258 111.144 100.591 110.979 100.015 110.648C99.4495 110.317 99.0229 109.896 98.7349 109.384V111H97.2789V99.16H98.7349V103.864ZM104.687 106.584C104.687 105.923 104.554 105.347 104.287 104.856C104.02 104.365 103.658 103.992 103.199 103.736C102.751 103.48 102.255 103.352 101.711 103.352C101.178 103.352 100.682 103.485 100.223 103.752C99.7749 104.008 99.4122 104.387 99.1349 104.888C98.8682 105.379 98.7349 105.949 98.7349 106.6C98.7349 107.261 98.8682 107.843 99.1349 108.344C99.4122 108.835 99.7749 109.213 100.223 109.48C100.682 109.736 101.178 109.864 101.711 109.864C102.255 109.864 102.751 109.736 103.199 109.48C103.658 109.213 104.02 108.835 104.287 108.344C104.554 107.843 104.687 107.256 104.687 106.584ZM107.547 106.584C107.547 105.688 107.729 104.904 108.091 104.232C108.454 103.549 108.95 103.021 109.579 102.648C110.219 102.275 110.929 102.088 111.707 102.088C112.475 102.088 113.142 102.253 113.707 102.584C114.273 102.915 114.694 103.331 114.971 103.832V102.232H116.443V111H114.971V109.368C114.683 109.88 114.251 110.307 113.675 110.648C113.11 110.979 112.449 111.144 111.691 111.144C110.913 111.144 110.209 110.952 109.579 110.568C108.95 110.184 108.454 109.645 108.091 108.952C107.729 108.259 107.547 107.469 107.547 106.584ZM114.971 106.6C114.971 105.939 114.838 105.363 114.571 104.872C114.305 104.381 113.942 104.008 113.483 103.752C113.035 103.485 112.539 103.352 111.995 103.352C111.451 103.352 110.955 103.48 110.507 103.736C110.059 103.992 109.702 104.365 109.435 104.856C109.169 105.347 109.035 105.923 109.035 106.584C109.035 107.256 109.169 107.843 109.435 108.344C109.702 108.835 110.059 109.213 110.507 109.48C110.955 109.736 111.451 109.864 111.995 109.864C112.539 109.864 113.035 109.736 113.483 109.48C113.942 109.213 114.305 108.835 114.571 108.344C114.838 107.843 114.971 107.261 114.971 106.6ZM119.656 100.808C119.379 100.808 119.144 100.712 118.952 100.52C118.76 100.328 118.664 100.093 118.664 99.816C118.664 99.5387 118.76 99.304 118.952 99.112C119.144 98.92 119.379 98.824 119.656 98.824C119.923 98.824 120.147 98.92 120.328 99.112C120.52 99.304 120.616 99.5387 120.616 99.816C120.616 100.093 120.52 100.328 120.328 100.52C120.147 100.712 119.923 100.808 119.656 100.808ZM120.36 102.232V111H118.904V102.232H120.36ZM127.737 111L124.297 107.128V111H122.841V99.16H124.297V106.12L127.673 102.232H129.705L125.577 106.6L129.721 111H127.737Z" fill="white"/>
<path d="M107.035 10.7918L85.7425 0.912598C83.5443 3.75861 78.6778 5.74468 73.002 5.74468C67.3261 5.74468 62.4596 3.75861 60.2615 0.912598L38.969 10.7918C38.105 11.2013 37.7551 12.184 38.1816 12.9928L44.437 24.7147C44.8744 25.5235 45.9243 25.8511 46.7882 25.4518L52.978 22.616C54.1373 22.0837 55.4933 22.872 55.4933 24.0902V50.0524C55.4933 51.8645 57.0572 53.3284 58.9929 53.3284H86.9892C88.9248 53.3284 90.4887 51.8645 90.4887 50.0524V24.08C90.4887 22.872 91.8448 22.0734 93.004 22.6058L99.1938 25.4416C100.058 25.8511 101.108 25.5235 101.545 24.7045L107.811 12.9928C108.249 12.184 107.899 11.191 107.035 10.7918Z" fill="#EC994B"/>
</svg>
