<svg width="147" height="117" viewBox="0 0 147 117" fill="none" xmlns="http://www.w3.org/2000/svg">
<path d="M40.0839 78.223L36.8519 89.375H35.2199L32.6279 80.399L29.9399 89.375L28.3239 89.391L25.2039 78.223H26.7559L29.1879 87.679L31.8759 78.223H33.5079L36.0679 87.647L38.5159 78.223H40.0839ZM41.1333 84.959C41.1333 84.063 41.3146 83.279 41.6773 82.607C42.04 81.9243 42.536 81.3963 43.1653 81.023C43.8053 80.6497 44.5146 80.463 45.2933 80.463C46.0613 80.463 46.728 80.6283 47.2933 80.959C47.8586 81.2897 48.28 81.7057 48.5573 82.207V80.607H50.0293V89.375H48.5573V87.743C48.2693 88.255 47.8373 88.6817 47.2613 89.023C46.696 89.3537 46.0346 89.519 45.2773 89.519C44.4986 89.519 43.7946 89.327 43.1653 88.943C42.536 88.559 42.04 88.0203 41.6773 87.327C41.3146 86.6337 41.1333 85.8443 41.1333 84.959ZM48.5573 84.975C48.5573 84.3137 48.424 83.7377 48.1573 83.247C47.8906 82.7563 47.528 82.383 47.0693 82.127C46.6213 81.8603 46.1253 81.727 45.5813 81.727C45.0373 81.727 44.5413 81.855 44.0933 82.111C43.6453 82.367 43.288 82.7403 43.0213 83.231C42.7546 83.7217 42.6213 84.2977 42.6213 84.959C42.6213 85.631 42.7546 86.2177 43.0213 86.719C43.288 87.2097 43.6453 87.5883 44.0933 87.855C44.5413 88.111 45.0373 88.239 45.5813 88.239C46.1253 88.239 46.6213 88.111 47.0693 87.855C47.528 87.5883 47.8906 87.2097 48.1573 86.719C48.424 86.2177 48.5573 85.6363 48.5573 84.975ZM53.9458 82.031C54.2018 81.5297 54.5645 81.1403 55.0338 80.863C55.5138 80.5857 56.0951 80.447 56.7778 80.447V81.951H56.3938C54.7618 81.951 53.9458 82.8363 53.9458 84.607V89.375H52.4898V80.607H53.9458V82.031ZM62.7306 80.447C63.7972 80.447 64.6612 80.7723 65.3226 81.423C65.9839 82.063 66.3146 82.991 66.3146 84.207V89.375H64.8746V84.415C64.8746 83.5403 64.6559 82.8737 64.2186 82.415C63.7812 81.9457 63.1839 81.711 62.4266 81.711C61.6586 81.711 61.0452 81.951 60.5866 82.431C60.1386 82.911 59.9146 83.6097 59.9146 84.527V89.375H58.4586V80.607H59.9146V81.855C60.2026 81.407 60.5919 81.0603 61.0826 80.815C61.5839 80.5697 62.1332 80.447 62.7306 80.447ZM68.1489 84.959C68.1489 84.063 68.3303 83.279 68.6929 82.607C69.0556 81.9243 69.5516 81.3963 70.1809 81.023C70.8209 80.6497 71.5303 80.463 72.3089 80.463C73.0769 80.463 73.7436 80.6283 74.3089 80.959C74.8743 81.2897 75.2956 81.7057 75.5729 82.207V80.607H77.0449V89.375H75.5729V87.743C75.2849 88.255 74.8529 88.6817 74.2769 89.023C73.7116 89.3537 73.0503 89.519 72.2929 89.519C71.5143 89.519 70.8103 89.327 70.1809 88.943C69.5516 88.559 69.0556 88.0203 68.6929 87.327C68.3303 86.6337 68.1489 85.8443 68.1489 84.959ZM75.5729 84.975C75.5729 84.3137 75.4396 83.7377 75.1729 83.247C74.9063 82.7563 74.5436 82.383 74.0849 82.127C73.6369 81.8603 73.1409 81.727 72.5969 81.727C72.0529 81.727 71.5569 81.855 71.1089 82.111C70.6609 82.367 70.3036 82.7403 70.0369 83.231C69.7703 83.7217 69.6369 84.2977 69.6369 84.959C69.6369 85.631 69.7703 86.2177 70.0369 86.719C70.3036 87.2097 70.6609 87.5883 71.1089 87.855C71.5569 88.111 72.0529 88.239 72.5969 88.239C73.1409 88.239 73.6369 88.111 74.0849 87.855C74.5436 87.5883 74.9063 87.2097 75.1729 86.719C75.4396 86.2177 75.5729 85.6363 75.5729 84.975ZM85.5471 81.807V86.975C85.5471 87.4017 85.6377 87.7057 85.8191 87.887C86.0004 88.0577 86.3151 88.143 86.7631 88.143H87.8351V89.375H86.5231C85.7124 89.375 85.1044 89.1883 84.6991 88.815C84.2937 88.4417 84.0911 87.8283 84.0911 86.975V81.807H82.9551V80.607H84.0911V78.399H85.5471V80.607H87.8351V81.807H85.5471ZM90.3512 79.183C90.0739 79.183 89.8392 79.087 89.6472 78.895C89.4552 78.703 89.3592 78.4683 89.3592 78.191C89.3592 77.9137 89.4552 77.679 89.6472 77.487C89.8392 77.295 90.0739 77.199 90.3512 77.199C90.6179 77.199 90.8419 77.295 91.0232 77.487C91.2152 77.679 91.3112 77.9137 91.3112 78.191C91.3112 78.4683 91.2152 78.703 91.0232 78.895C90.8419 79.087 90.6179 79.183 90.3512 79.183ZM91.0552 80.607V89.375H89.5992V80.607H91.0552ZM92.9927 84.959C92.9927 84.063 93.174 83.279 93.5367 82.607C93.8994 81.9243 94.3954 81.3963 95.0247 81.023C95.6647 80.6497 96.3794 80.463 97.1687 80.463C97.8514 80.463 98.486 80.623 99.0727 80.943C99.6594 81.2523 100.107 81.663 100.417 82.175V77.535H101.889V89.375H100.417V87.727C100.129 88.2497 99.702 88.6817 99.1367 89.023C98.5714 89.3537 97.91 89.519 97.1527 89.519C96.374 89.519 95.6647 89.327 95.0247 88.943C94.3954 88.559 93.8994 88.0203 93.5367 87.327C93.174 86.6337 92.9927 85.8443 92.9927 84.959ZM100.417 84.975C100.417 84.3137 100.283 83.7377 100.017 83.247C99.75 82.7563 99.3874 82.383 98.9287 82.127C98.4807 81.8603 97.9847 81.727 97.4407 81.727C96.8967 81.727 96.4007 81.855 95.9527 82.111C95.5047 82.367 95.1474 82.7403 94.8807 83.231C94.614 83.7217 94.4807 84.2977 94.4807 84.959C94.4807 85.631 94.614 86.2177 94.8807 86.719C95.1474 87.2097 95.5047 87.5883 95.9527 87.855C96.4007 88.111 96.8967 88.239 97.4407 88.239C97.9847 88.239 98.4807 88.111 98.9287 87.855C99.3874 87.5883 99.75 87.2097 100.017 86.719C100.283 86.2177 100.417 85.6363 100.417 84.975ZM103.805 84.959C103.805 84.063 103.987 83.279 104.349 82.607C104.712 81.9243 105.208 81.3963 105.837 81.023C106.477 80.6497 107.187 80.463 107.965 80.463C108.733 80.463 109.4 80.6283 109.965 80.959C110.531 81.2897 110.952 81.7057 111.229 82.207V80.607H112.701V89.375H111.229V87.743C110.941 88.255 110.509 88.6817 109.933 89.023C109.368 89.3537 108.707 89.519 107.949 89.519C107.171 89.519 106.467 89.327 105.837 88.943C105.208 88.559 104.712 88.0203 104.349 87.327C103.987 86.6337 103.805 85.8443 103.805 84.959ZM111.229 84.975C111.229 84.3137 111.096 83.7377 110.829 83.247C110.563 82.7563 110.2 82.383 109.741 82.127C109.293 81.8603 108.797 81.727 108.253 81.727C107.709 81.727 107.213 81.855 106.765 82.111C106.317 82.367 105.96 82.7403 105.693 83.231C105.427 83.7217 105.293 84.2977 105.293 84.959C105.293 85.631 105.427 86.2177 105.693 86.719C105.96 87.2097 106.317 87.5883 106.765 87.855C107.213 88.111 107.709 88.239 108.253 88.239C108.797 88.239 109.293 88.111 109.741 87.855C110.2 87.5883 110.563 87.2097 110.829 86.719C111.096 86.2177 111.229 85.6363 111.229 84.975ZM120.058 89.375L116.618 85.503V89.375H115.162V77.535H116.618V84.495L119.994 80.607H122.026L117.898 84.975L122.042 89.375H120.058ZM52.9693 100.535V112.375H51.5133V100.535H52.9693ZM63.2268 103.607V112.375H61.7708V111.079C61.4934 111.527 61.1041 111.879 60.6028 112.135C60.1121 112.38 59.5681 112.503 58.9708 112.503C58.2881 112.503 57.6748 112.364 57.1308 112.087C56.5868 111.799 56.1548 111.372 55.8348 110.807C55.5254 110.242 55.3708 109.554 55.3708 108.743V103.607H56.8108V108.551C56.8108 109.415 57.0294 110.082 57.4668 110.551C57.9041 111.01 58.5014 111.239 59.2588 111.239C60.0374 111.239 60.6508 110.999 61.0988 110.519C61.5468 110.039 61.7708 109.34 61.7708 108.423V103.607H63.2268ZM69.9571 103.447C71.0238 103.447 71.8878 103.772 72.5491 104.423C73.2105 105.063 73.5411 105.991 73.5411 107.207V112.375H72.1011V107.415C72.1011 106.54 71.8825 105.874 71.4451 105.415C71.0078 104.946 70.4105 104.711 69.6531 104.711C68.8851 104.711 68.2718 104.951 67.8131 105.431C67.3651 105.911 67.1411 106.61 67.1411 107.527V112.375H65.6851V103.607H67.1411V104.855C67.4291 104.407 67.8185 104.06 68.3091 103.815C68.8105 103.57 69.3598 103.447 69.9571 103.447ZM77.6955 104.807V109.975C77.6955 110.402 77.7862 110.706 77.9675 110.887C78.1488 111.058 78.4635 111.143 78.9115 111.143H79.9835V112.375H78.6715C77.8608 112.375 77.2528 112.188 76.8475 111.815C76.4422 111.442 76.2395 110.828 76.2395 109.975V104.807H75.1035V103.607H76.2395V101.399H77.6955V103.607H79.9835V104.807H77.6955ZM89.5236 103.607V112.375H88.0676V111.079C87.7903 111.527 87.401 111.879 86.8996 112.135C86.409 112.38 85.865 112.503 85.2676 112.503C84.585 112.503 83.9716 112.364 83.4276 112.087C82.8836 111.799 82.4516 111.372 82.1316 110.807C81.8223 110.242 81.6676 109.554 81.6676 108.743V103.607H83.1076V108.551C83.1076 109.415 83.3263 110.082 83.7636 110.551C84.201 111.01 84.7983 111.239 85.5556 111.239C86.3343 111.239 86.9476 110.999 87.3956 110.519C87.8436 110.039 88.0676 109.34 88.0676 108.423V103.607H89.5236ZM93.438 105.031C93.694 104.53 94.0567 104.14 94.526 103.863C95.006 103.586 95.5873 103.447 96.27 103.447V104.951H95.886C94.254 104.951 93.438 105.836 93.438 107.607V112.375H91.982V103.607H93.438V105.031Z" fill="white"/>
<path d="M59.4919 33.124C54.81 33.3923 50.5611 34.9812 48.1501 40.6423C47.8759 41.2881 47.2165 41.6801 46.4475 41.6801C45.151 41.6801 41.1425 38.8028 40 38.1081C40.0012 46.6716 44.4275 54.1982 54.9384 54.1982C63.791 54.1982 69.8756 49.6467 69.8756 41.6999C69.8756 41.3765 69.7997 41.0676 69.7624 40.7505L59.4919 33.124ZM93.4355 0.956299C91.6664 0.956299 90.0081 1.65406 88.7431 2.6669C64.8891 21.6551 62.407 22.1012 62.407 27.6906C62.407 29.1152 62.7862 30.4733 63.4257 31.7149L70.8733 37.245C71.7147 37.4322 72.5818 37.5601 73.4862 37.5601C80.7342 37.5601 84.9353 32.8318 98.1279 10.8913C98.9891 9.39909 99.75 7.78728 99.75 6.10891C99.75 3.10261 96.7159 0.956299 93.4355 0.956299Z" fill="#EC994B"/>
</svg>
