<svg width="16" height="16" viewBox="0 0 16 16" fill="none" xmlns="http://www.w3.org/2000/svg">
<path d="M0.571429 2.97828H15.4286C15.7442 2.97828 16 2.70471 16 2.36721V0.839527C16 0.502024 15.7442 0.228455 15.4286 0.228455H0.571429C0.255821 0.228455 0 0.502024 0 0.839527V2.36721C0 2.70471 0.255821 2.97828 0.571429 2.97828ZM0.571429 9.089H15.4286C15.7442 9.089 16 8.81543 16 8.47793V6.95025C16 6.61275 15.7442 6.33918 15.4286 6.33918H0.571429C0.255821 6.33918 0 6.61275 0 6.95025V8.47793C0 8.81543 0.255821 9.089 0.571429 9.089ZM0.571429 15.1997H15.4286C15.7442 15.1997 16 14.9262 16 14.5887V13.061C16 12.7235 15.7442 12.4499 15.4286 12.4499H0.571429C0.255821 12.4499 0 12.7235 0 13.061V14.5887C0 14.9262 0.255821 15.1997 0.571429 15.1997Z" fill="#080054"/>
</svg>
