<svg width="33" height="33" viewBox="0 0 33 33" fill="none" xmlns="http://www.w3.org/2000/svg">
<circle cx="16.5" cy="16.5" r="16" stroke="#080054"/>
<path d="M17.002 12.385C14.4481 12.385 12.3881 14.4455 12.3881 17C12.3881 19.5545 14.4481 21.615 17.002 21.615C19.5559 21.615 21.616 19.5545 21.616 17C21.616 14.4455 19.5559 12.385 17.002 12.385ZM17.002 20.0003C15.3516 20.0003 14.0023 18.6548 14.0023 17C14.0023 15.3452 15.3476 13.9997 17.002 13.9997C18.6564 13.9997 20.0017 15.3452 20.0017 17C20.0017 18.6548 18.6524 20.0003 17.002 20.0003ZM22.8809 12.1963C22.8809 12.7947 22.399 13.2727 21.8047 13.2727C21.2064 13.2727 20.7285 12.7907 20.7285 12.1963C20.7285 11.6018 21.2104 11.1198 21.8047 11.1198C22.399 11.1198 22.8809 11.6018 22.8809 12.1963ZM25.9368 13.2887C25.8685 11.8468 25.5392 10.5696 24.4831 9.51724C23.431 8.46491 22.154 8.13556 20.7124 8.06326C19.2267 7.97891 14.7733 7.97891 13.2876 8.06326C11.85 8.13154 10.573 8.46089 9.5169 9.51322C8.46079 10.5655 8.13553 11.8428 8.06325 13.2847C7.97892 14.7708 7.97892 19.2251 8.06325 20.7113C8.13151 22.1532 8.46079 23.4304 9.5169 24.4828C10.573 25.5351 11.846 25.8644 13.2876 25.9367C14.7733 26.0211 19.2267 26.0211 20.7124 25.9367C22.154 25.8685 23.431 25.5391 24.4831 24.4828C25.5352 23.4304 25.8645 22.1532 25.9368 20.7113C26.0211 19.2251 26.0211 14.7749 25.9368 13.2887ZM24.0173 22.3058C23.7041 23.093 23.0977 23.6995 22.3066 24.0168C21.122 24.4868 18.3111 24.3783 17.002 24.3783C15.6929 24.3783 12.878 24.4828 11.6974 24.0168C10.9103 23.7036 10.304 23.0971 9.98673 22.3058C9.5169 21.1209 9.62532 18.3094 9.62532 17C9.62532 15.6906 9.52091 12.875 9.98673 11.6942C10.2999 10.907 10.9063 10.3005 11.6974 9.98315C12.882 9.51322 15.6929 9.62167 17.002 9.62167C18.3111 9.62167 21.126 9.51724 22.3066 9.98315C23.0937 10.2964 23.7001 10.9029 24.0173 11.6942C24.4871 12.8791 24.3787 15.6906 24.3787 17C24.3787 18.3094 24.4871 21.125 24.0173 22.3058Z" fill="#080054"/>
</svg>
