<svg width="33" height="33" viewBox="0 0 33 33" fill="none" xmlns="http://www.w3.org/2000/svg">
<circle cx="16.5" cy="16.5" r="16" stroke="#080054"/>
<path d="M23.304 10.6156C21.6205 8.92812 19.3786 8 16.996 8C12.0781 8 8.07634 12.0018 8.07634 16.9196C8.07634 18.4906 8.48616 20.0254 9.26562 21.3795L8 26L12.729 24.7585C14.0308 25.4696 15.4973 25.8433 16.992 25.8433H16.996C21.9098 25.8433 26 21.8415 26 16.9237C26 14.5411 24.9875 12.3031 23.304 10.6156ZM16.996 24.3406C15.6621 24.3406 14.3562 23.983 13.2192 23.308L12.95 23.1473L10.1455 23.8826L10.8929 21.1464L10.7161 20.8652C9.97277 19.6839 9.58304 18.3219 9.58304 16.9196C9.58304 12.8335 12.9098 9.5067 17 9.5067C18.9808 9.5067 20.8411 10.2781 22.2393 11.6804C23.6375 13.0826 24.4973 14.9429 24.4933 16.9237C24.4933 21.0138 21.0821 24.3406 16.996 24.3406ZM21.0621 18.7879C20.8411 18.6754 19.7442 18.1371 19.5393 18.0647C19.3344 17.9884 19.1857 17.9522 19.0371 18.1772C18.8884 18.4022 18.4625 18.9004 18.3299 19.0531C18.2013 19.2018 18.0688 19.2219 17.8478 19.1094C16.5379 18.4545 15.6781 17.9402 14.8143 16.4576C14.5853 16.0638 15.0433 16.092 15.4692 15.2402C15.5415 15.0915 15.5054 14.9629 15.4491 14.8504C15.3929 14.7379 14.9469 13.6411 14.7621 13.1951C14.5813 12.7612 14.3964 12.8214 14.2598 12.8134C14.1312 12.8054 13.9826 12.8054 13.8339 12.8054C13.6853 12.8054 13.4442 12.8616 13.2393 13.0826C13.0344 13.3076 12.4598 13.846 12.4598 14.9429C12.4598 16.0397 13.2594 17.1004 13.3679 17.2491C13.4804 17.3978 14.9388 19.6478 17.1768 20.6161C18.5911 21.2268 19.1455 21.279 19.8527 21.1746C20.2826 21.1103 21.1705 20.6362 21.3554 20.1138C21.5402 19.5915 21.5402 19.1455 21.4839 19.0531C21.4317 18.9527 21.283 18.8964 21.0621 18.7879Z" fill="#080054"/>
</svg>
